<svg width="50" height="50" viewBox="0 0 36 35" fill="none" xmlns="http://www.w3.org/2000/svg">
<rect width="36" height="35" fill="white"/>
<path fill-rule="evenodd" clip-rule="evenodd" d="M6 7.29163V27.7083C6 30.1246 8.01472 32.0833 10.5 32.0833H25.5C27.9853 32.0833 30 30.1246 30 27.7083V13.125C30 10.7087 27.9853 8.74996 25.5 8.74996H7.5C6.67158 8.74996 6 8.09703 6 7.29163ZM10.875 17.5C10.875 16.8959 11.3787 16.4062 12 16.4062H24C24.6213 16.4062 25.125 16.8959 25.125 17.5C25.125 18.104 24.6213 18.5937 24 18.5937H12C11.3787 18.5937 10.875 18.104 10.875 17.5ZM10.875 22.6041C10.875 22.0001 11.3787 21.5104 12 21.5104H20.25C20.8713 21.5104 21.375 22.0001 21.375 22.6041C21.375 23.2082 20.8713 23.6979 20.25 23.6979H12C11.3787 23.6979 10.875 23.2082 10.875 22.6041Z" fill="#00A6BC"/>
<path d="M6.61319 5.96035C7.13591 6.18826 7.5 6.69862 7.5 7.29167H25.5C26.0179 7.29167 26.5206 7.35547 27 7.47545V6.27964C27 4.5047 25.383 3.14128 23.5758 3.39229L7.37939 5.64178C7.09068 5.68189 6.82907 5.79504 6.61319 5.96035Z" fill="#1C274D"/>
</svg>
