<svg width="38" height="36" viewBox="0 0 38 36" fill="none" xmlns="http://www.w3.org/2000/svg">
<g clip-path="url(#clip0_18_257)">
<rect width="36.6284" height="35" transform="translate(0.955772 0.600098)" fill="white"/>
<path fill-rule="evenodd" clip-rule="evenodd" d="M19.27 0.600098C29.3849 0.600098 37.5842 8.63247 37.5842 18.5427C37.5842 26.4685 32.3426 33.192 25.0701 35.5668C24.1415 35.7435 23.8119 35.1832 23.8119 34.7054C23.8119 34.1139 23.8339 32.182 23.8339 29.781C23.8339 28.108 23.2478 27.0161 22.5903 26.4596C26.6689 26.0151 30.9544 24.4977 30.9544 17.6062C30.9544 15.6462 30.2438 14.0468 29.0681 12.7903C29.2585 12.337 29.8867 10.512 28.8886 8.04102C28.8886 8.04102 27.3538 7.56024 23.8577 9.88074C22.3944 9.48349 20.8267 9.28361 19.27 9.27661C17.7133 9.28361 16.1474 9.48349 14.6859 9.88074C11.1861 7.56024 9.64769 8.04102 9.64769 8.04102C8.65323 10.512 9.28141 12.337 9.47005 12.7903C8.29977 14.0468 7.58368 15.6462 7.58368 17.6062C7.58368 24.4802 11.86 26.0209 15.9276 26.4741C15.4038 26.9221 14.9295 27.7124 14.7647 28.8727C13.7208 29.3312 11.0689 30.1247 9.43524 27.3824C9.43524 27.3824 8.46642 25.6585 6.62768 25.5325C6.62768 25.5325 4.84204 25.5098 6.50314 26.6228C6.50314 26.6228 7.70272 27.1741 8.53602 29.2478C8.53602 29.2478 9.61107 32.4502 14.7061 31.3652C14.7152 32.865 14.7317 34.2784 14.7317 34.7054C14.7317 35.1797 14.3947 35.7347 13.4808 35.5685C6.20278 33.1972 0.955772 26.4702 0.955772 18.5427C0.955772 8.63247 9.15687 0.600098 19.27 0.600098Z" fill="black"/>
</g>
<defs>
<clipPath id="clip0_18_257">
<rect width="36.6284" height="35" fill="white" transform="translate(0.955772 0.600098)"/>
</clipPath>
</defs>
</svg>
