<svg width="38" height="36" viewBox="0 0 38 36" fill="none" xmlns="http://www.w3.org/2000/svg">
<rect width="36.6284" height="35" transform="translate(0.733887 0.600098)" fill="white"/>
<path d="M19.0481 32.6834C27.477 32.6834 34.3099 26.1542 34.3099 18.1001C34.3099 10.0459 27.477 3.51672 19.0481 3.51672C10.6192 3.51672 3.78625 10.0459 3.78625 18.1001C3.78625 26.1542 10.6192 32.6834 19.0481 32.6834Z" fill="#C13584"/>
<path d="M19.0481 10.9267C21.4931 10.9267 21.7828 10.9356 22.7483 10.9777C23.6411 11.0166 24.126 11.1592 24.4487 11.279C24.8761 11.4377 25.1811 11.6273 25.5016 11.9335C25.8221 12.2397 26.0205 12.5312 26.1866 12.9396C26.312 13.2479 26.4611 13.7112 26.5019 14.5643C26.5459 15.487 26.5552 15.7637 26.5552 18.1C26.5552 20.4364 26.5459 20.7131 26.5019 21.6358C26.4611 22.4889 26.312 22.9522 26.1866 23.2606C26.0205 23.669 25.8221 23.9605 25.5016 24.2667C25.1811 24.5728 24.8761 24.7624 24.4487 24.9212C24.126 25.041 23.6411 25.1835 22.7483 25.2224C21.7829 25.2645 21.4933 25.2735 19.0481 25.2735C16.6028 25.2735 16.3133 25.2645 15.3479 25.2224C14.455 25.1835 13.9702 25.041 13.6475 24.9212C13.2201 24.7624 12.915 24.5728 12.5946 24.2667C12.2742 23.9605 12.0757 23.669 11.9096 23.2606C11.7842 22.9522 11.635 22.4889 11.5943 21.6358C11.5503 20.7131 11.5409 20.4364 11.5409 18.1C11.5409 15.7637 11.5503 15.487 11.5943 14.5643C11.635 13.7112 11.7842 13.2479 11.9096 12.9396C12.0757 12.5312 12.2741 12.2397 12.5946 11.9335C12.915 11.6273 13.2201 11.4377 13.6475 11.279C13.9702 11.1592 14.455 11.0166 15.3479 10.9777C16.3134 10.9356 16.6031 10.9267 19.0481 10.9267ZM19.0481 9.3501C16.5612 9.3501 16.2493 9.36016 15.2726 9.40274C14.298 9.44525 13.6323 9.59313 13.0498 9.80947C12.4477 10.033 11.937 10.3322 11.4279 10.8187C10.9188 11.3051 10.6057 11.7931 10.3717 12.3685C10.1453 12.9251 9.99057 13.5611 9.94609 14.4925C9.90152 15.4257 9.89099 15.7237 9.89099 18.1C9.89099 20.4764 9.90152 20.7744 9.94609 21.7076C9.99057 22.639 10.1453 23.2751 10.3717 23.8316C10.6057 24.407 10.9188 24.895 11.4279 25.3815C11.937 25.8679 12.4477 26.1671 13.0498 26.3906C13.6323 26.607 14.298 26.7549 15.2726 26.7974C16.2493 26.84 16.5612 26.85 19.0481 26.85C21.535 26.85 21.8469 26.84 22.8236 26.7974C23.7982 26.7549 24.4639 26.607 25.0464 26.3906C25.6485 26.1671 26.1592 25.8679 26.6682 25.3815C27.1773 24.895 27.4905 24.407 27.7244 23.8316C27.9508 23.2751 28.1056 22.639 28.1501 21.7076C28.1947 20.7744 28.2052 20.4764 28.2052 18.1C28.2052 15.7237 28.1947 15.4257 28.1501 14.4925C28.1056 13.5611 27.9508 12.9251 27.7244 12.3685C27.4905 11.7931 27.1773 11.3051 26.6682 10.8187C26.1592 10.3322 25.6485 10.033 25.0464 9.80947C24.4639 9.59313 23.7982 9.44525 22.8236 9.40274C21.8469 9.36016 21.535 9.3501 19.0481 9.3501Z" fill="white"/>
<path d="M19.0526 13.6108C16.4555 13.6108 14.3503 15.6225 14.3503 18.104C14.3503 20.5856 16.4555 22.5972 19.0526 22.5972C21.6496 22.5972 23.7549 20.5856 23.7549 18.104C23.7549 15.6225 21.6496 13.6108 19.0526 13.6108ZM19.0526 21.0207C17.3668 21.0207 16.0002 19.7148 16.0002 18.104C16.0002 16.4932 17.3668 15.1874 19.0526 15.1874C20.7384 15.1874 22.105 16.4932 22.105 18.104C22.105 19.7148 20.7384 21.0207 19.0526 21.0207Z" fill="white"/>
<path d="M25.0389 13.4307C25.0389 14.0105 24.5469 14.4807 23.94 14.4807C23.3332 14.4807 22.8412 14.0105 22.8412 13.4307C22.8412 12.8508 23.3332 12.3806 23.94 12.3806C24.5469 12.3806 25.0389 12.8508 25.0389 13.4307Z" fill="white"/>
</svg>
