<svg width="38" height="36" viewBox="0 0 38 36" fill="none" xmlns="http://www.w3.org/2000/svg">
<rect width="36.6284" height="35" transform="translate(0.547852 0.600098)" fill="white"/>
<path d="M28.5342 27.3423H24.4639V21.2501C24.4639 19.7976 24.4364 17.9273 22.3463 17.9273C20.2265 17.9273 19.9014 19.5111 19.9014 21.1429V27.3423H15.831V14.8145H19.7388V16.5273H19.7938C20.5904 15.2279 22.0739 14.4492 23.6489 14.5039C27.7742 14.5039 28.5365 17.0961 28.5365 20.4714L28.5342 27.3401V27.3423ZM11.2388 13.1017C10.6135 13.0988 10.0147 12.8604 9.57233 12.4381C9.12999 12.0158 8.87985 11.4438 8.87623 10.8464C8.87623 9.60825 9.94304 8.58888 11.2388 8.58888C12.5345 8.58888 13.599 9.60825 13.6013 10.8464C13.6013 12.0845 12.5345 13.1017 11.2388 13.1017ZM13.2739 27.3423H9.19902V14.8145H13.2739V27.3423ZM30.5602 4.97513H7.15241C6.62164 4.97218 6.11111 5.16951 5.73174 5.52423C5.35238 5.87895 5.13484 6.36239 5.1264 6.8695V29.3307C5.13484 29.8379 5.35238 30.3213 5.73174 30.676C6.11111 31.0307 6.62164 31.2281 7.15241 31.2251H30.5625C31.0945 31.2292 31.6067 31.0326 31.9878 30.6778C32.3689 30.3231 32.5881 29.839 32.5977 29.3307V6.86732C32.5881 6.35944 32.3687 5.87579 31.9875 5.52176C31.6063 5.16774 31.0941 4.97204 30.5625 4.97732L30.5602 4.97513Z" fill="#0A66C2"/>
</svg>
