<svg width="50" height="50" viewBox="0 0 37 35" fill="none" xmlns="http://www.w3.org/2000/svg">
<rect width="60.6284" height="60" fill="none"/>
<path d="M4.1665 6.5625L18.3143 16.1547L32.4621 6.5625C32.6465 6.44943 32.861 6.38932 33.0802 6.38932C33.2993 6.38932 33.5138 6.44943 33.6983 6.5625C32.8954 5.8944 31.8777 5.5085 30.8138 5.46875H5.81478C4.76481 5.47769 3.74863 5.82448 2.93028 6.45312C3.12552 6.3558 3.34599 6.31435 3.56526 6.33375C3.78453 6.35315 3.99328 6.43258 4.1665 6.5625Z" fill="#75CEDE"/>
<path d="M33.8356 6.5625C33.919 6.62045 33.9924 6.69058 34.053 6.77031C34.228 7.00564 34.2985 7.29751 34.2492 7.58229C34.1999 7.86708 34.0347 8.12169 33.7898 8.29062L18.9781 18.3859C18.7843 18.5178 18.5522 18.5887 18.3142 18.5887C18.0763 18.5887 17.8442 18.5178 17.6504 18.3859L2.83871 8.27969C2.59375 8.11075 2.42862 7.85614 2.3793 7.57136C2.32999 7.28657 2.40049 6.9947 2.57544 6.75937C2.637 6.68353 2.71034 6.61714 2.79292 6.5625C2.28083 6.97774 1.8685 7.49364 1.58405 8.075C1.29959 8.65636 1.14972 9.28951 1.14464 9.93125V25.0687C1.14464 26.2523 1.63667 27.3873 2.51249 28.2242C3.38831 29.0611 4.57617 29.5312 5.81477 29.5312H30.8137C32.0523 29.5312 33.2402 29.0611 34.116 28.2242C34.9918 27.3873 35.4838 26.2523 35.4838 25.0687V9.93125C35.4788 9.28951 35.3289 8.65636 35.0444 8.075C34.76 7.49364 34.3476 6.97774 33.8356 6.5625ZM15.7731 20.5734L4.16649 28.4922C3.97326 28.6259 3.74115 28.6985 3.5026 28.7C3.321 28.6992 3.14221 28.6571 2.98099 28.5772C2.81978 28.4974 2.68076 28.382 2.57544 28.2406C2.40049 28.0053 2.32999 27.7134 2.3793 27.4286C2.42862 27.1439 2.59375 26.8892 2.83871 26.7203L14.4454 18.8016C14.6918 18.6621 14.984 18.616 15.2643 18.6723C15.5446 18.7287 15.7926 18.8834 15.9593 19.1059C16.1261 19.3284 16.1994 19.6026 16.165 19.8743C16.1305 20.146 15.9907 20.3954 15.7731 20.5734ZM34.0874 28.2297C33.9821 28.371 33.843 28.4864 33.6818 28.5663C33.5206 28.6462 33.3418 28.6883 33.1602 28.6891C32.9217 28.6876 32.6896 28.6149 32.4963 28.4812L20.8553 20.5734C20.7188 20.4962 20.6006 20.3926 20.5082 20.2694C20.4158 20.1461 20.3512 20.0059 20.3185 19.8575C20.2858 19.7091 20.2858 19.5559 20.3184 19.4075C20.3511 19.2591 20.4156 19.1189 20.508 18.9956C20.6004 18.8723 20.7185 18.7687 20.855 18.6914C20.9916 18.6141 21.1434 18.5648 21.3009 18.5466C21.4584 18.5283 21.6182 18.5416 21.7701 18.5855C21.9219 18.6294 22.0626 18.7029 22.1831 18.8016L33.7898 26.7203C34.0347 26.8892 34.1999 27.1439 34.2492 27.4286C34.2985 27.7134 34.228 28.0053 34.053 28.2406L34.0874 28.2297Z" fill="#00A6BC"/>
</svg>
