<svg width="83" height="75" viewBox="0 0 83 75" fill="none" xmlns="http://www.w3.org/2000/svg">
<path d="M15.007 72C15.007 72 22.2111 68.2105 39.0209 68.2105C55.8306 68.2105 63.0348 72 63.0348 72M27.0139 56.8421V68.9468M51.0278 56.8421V68.9468M15.8074 56.8421H62.2343C66.7173 56.8421 68.959 56.8421 70.6712 56.016C72.1773 55.2896 73.402 54.13 74.1692 52.704C75.0417 51.0829 75.0417 48.9604 75.0417 44.7158V15.9158C75.0417 11.6712 75.0417 9.54892 74.1692 7.92767C73.402 6.50158 72.1773 5.34215 70.6712 4.61556C68.959 3.78949 66.7173 3.78949 62.2343 3.78949H15.8074C11.3244 3.78949 9.08288 3.78949 7.37061 4.61556C5.86442 5.34215 4.63987 6.50158 3.87247 7.92767C3 9.54892 3 11.6712 3 15.9158V44.7158C3 48.9604 3 51.0829 3.87247 52.704C4.63987 54.13 5.86442 55.2896 7.37061 56.016C9.08288 56.8421 11.3244 56.8421 15.8074 56.8421Z" stroke="#60A0FF" stroke-width="4.19" stroke-linecap="round"/>
<path d="M78.9095 6.57295C77.0453 8.57211 71.9341 14.0926 67.8742 18.4805L62.7191 13.8631C67.3817 10.2023 73.1531 5.67716 75.2388 4.05672C78.9494 1.17148 82.2031 -0.54486 82.9103 0.156725C83.3532 0.545146 82.177 3.06503 78.9095 6.57295ZM66.9731 19.4516C65.4005 21.1497 64.0468 22.6124 63.2185 23.5093L57.1154 18.262C58.1047 17.4852 59.7515 16.1924 61.6611 14.6946L66.9731 19.4516ZM62.3092 24.4925V24.4779C58.7664 36.4705 43.0232 29.576 43.0232 29.576C43.0232 29.576 49.6284 30.3103 49.6284 24.8749C49.6284 19.6057 55.6984 19.1299 56.0712 19.1056L62.3215 24.4791L62.3092 24.4925Z" fill="#524683"/>
</svg>
