<svg width="80" height="72" viewBox="0 0 80 72" fill="none" xmlns="http://www.w3.org/2000/svg">
<path d="M40 43.152C43.9449 43.152 47.1429 39.9174 47.1429 35.9274C47.1429 31.9375 43.9449 28.7029 40 28.7029C36.0551 28.7029 32.8571 31.9375 32.8571 35.9274C32.8571 39.9174 36.0551 43.152 40 43.152Z" fill="#5398FF" fill-opacity="0.77"/>
<path d="M40 52.4918C31.4147 52.7019 22.8508 51.5314 14.6286 49.0241C10.8303 47.8062 7.28781 45.8878 4.18 43.3658C2.99409 42.5042 2.00649 41.3934 1.28498 40.1094C0.563465 38.8255 0.125113 37.3989 0 35.9274C0 31.1506 5.18857 26.4691 13.88 23.4059C22.3221 20.6917 31.1426 19.3762 40 19.5104C48.7392 19.3869 57.4415 20.6786 65.7771 23.3365C69.4351 24.516 72.8575 26.3417 75.8857 28.7289C77.0514 29.5503 78.0241 30.621 78.7351 31.8649C79.4461 33.1089 79.878 34.4959 80 35.9274C80 40.8921 74.2 45.9233 64.8571 49.0501C56.7941 51.4757 48.4109 52.6364 40 52.4918ZM40 22.9667C31.526 22.8521 23.0881 24.1026 15.0029 26.6714C7.00286 29.4947 3.41714 33.3555 3.41714 35.9188C3.41714 38.6005 7.27143 42.8167 15.7343 45.7441C23.6002 48.1307 31.7903 49.2416 40 49.0356C48.0469 49.1812 56.0684 48.0799 63.7857 45.7701C72.5714 42.8254 76.5714 38.6034 76.5714 35.9274C76.4273 35.0091 76.0964 34.131 75.5997 33.3486C75.103 32.5662 74.4513 31.8965 73.6857 31.3818C70.9764 29.264 67.9191 27.6459 64.6543 26.602C56.6801 24.0699 48.3571 22.8426 40 22.9667Z" fill="#5398FF" fill-opacity="0.77"/>
<path d="M23.7714 71.9605C22.4386 71.9914 21.1214 71.6643 19.9543 71.0126C15.8629 68.6256 14.4457 61.7421 16.1629 52.5959C18.0561 43.8429 21.3366 35.4573 25.8771 27.7637C30.1364 20.0454 35.5891 13.0659 42.0286 7.09005C44.8662 4.47393 48.1396 2.38702 51.6971 0.926094C52.9839 0.316169 54.3875 0 55.8086 0C57.2296 0 58.6333 0.316169 59.92 0.926094C64.1743 3.40555 65.5829 11 63.5971 20.7473C61.6454 29.0253 58.4502 36.9517 54.1229 44.2501C50.0135 51.8773 44.7325 58.796 38.4771 64.7475C35.5365 67.4662 32.1238 69.6109 28.4114 71.0733C26.9252 71.6312 25.3565 71.9312 23.7714 71.9605ZM28.8371 29.4803C24.506 36.8474 21.3619 44.8648 19.5229 53.2316C17.9429 61.6554 19.46 66.7212 21.6657 68.0101C23.9514 69.3481 29.5 68.0795 36.2371 62.1265C42.2086 56.4247 47.2492 49.802 51.1714 42.5047C55.317 35.5273 58.382 27.9491 60.26 20.0335C62.1286 10.8584 60.5143 5.24058 58.2229 3.90549C57.364 3.57266 56.4463 3.42367 55.5276 3.46794C54.609 3.51221 53.7094 3.74877 52.8857 4.16268C49.7191 5.48432 46.8078 7.36063 44.2857 9.70533C38.1333 15.4294 32.9248 22.1111 28.8571 29.4976L28.8371 29.4803Z" fill="#5398FF" fill-opacity="0.77"/>
<path d="M56.22 71.998C52.3486 71.998 47.4314 69.6284 42.3114 65.1752C35.7591 59.145 30.2142 52.0826 25.8914 44.2617C21.4078 36.6741 18.1533 28.4098 16.2514 19.7821C15.4266 15.9863 15.2737 12.0726 15.8 8.22287C15.9217 6.79474 16.3516 5.411 17.0595 4.16923C17.7674 2.92745 18.7361 1.85787 19.8971 1.03591C24.1457 -1.45221 31.3543 1.10527 38.7114 7.71137C44.8274 13.5551 50.0211 20.313 54.1114 27.7493C58.5923 35.1598 61.8809 43.2431 63.8543 51.6971C64.7146 55.6322 64.8473 59.6944 64.2457 63.6783C64.1026 65.1475 63.647 66.568 62.9102 67.8424C62.1734 69.1169 61.1729 70.2151 59.9771 71.0617C58.829 71.7054 57.5323 72.0285 56.22 71.998ZM28.8486 42.522C32.9955 49.9963 38.2923 56.7553 44.54 62.5455C50.9657 68.1373 56.0629 69.3394 58.2543 68.0361C60.54 66.6923 62.2257 61.2075 60.4886 52.3329C58.5854 44.2615 55.4311 36.5456 51.1429 29.4716C47.2395 22.3544 42.2821 15.8833 36.4429 10.2833C29.5171 4.06443 23.9 2.67444 21.6114 4.01531C20.8981 4.60159 20.3128 5.3311 19.8923 6.15777C19.4718 6.98444 19.2254 7.8903 19.1686 8.81817C18.7143 12.2515 18.8623 15.739 19.6057 19.1203C21.4351 27.3711 24.5564 35.2732 28.8514 42.5278L28.8486 42.522Z" fill="#5398FF" fill-opacity="0.77"/>
</svg>
