<?xml version="1.0" encoding="utf-8"?>
<!-- Uploaded to: SVG Repo, www.svgrepo.com, Generator: SVG Repo Mixer Tools -->
<svg xmlns="http://www.w3.org/2000/svg" xmlns:xlink="http://www.w3.org/1999/xlink" version="1.1" id="wirelesstablet"  viewBox="0 0 232.2524 214.3199" enable-background="new 0 0 232.2524 214.3199" xml:space="preserve" width="512" height="512">
<g>
	<path fill="#D0E8FF" d="M200,78.3199H24v104h176V78.3199z M92,170.3199c0,2.209-1.791,4-4,4H40c-2.209,0-4-1.791-4-4v-80   c0-2.209,1.791-4,4-4h48c2.209,0,4,1.791,4,4V170.3199z M184,154.3199h-78c-2.209,0-4-1.791-4-4s1.791-4,4-4h78   c2.209,0,4,1.791,4,4S186.209,154.3199,184,154.3199z M184,134.3199h-78c-2.209,0-4-1.791-4-4s1.791-4,4-4h78c2.209,0,4,1.791,4,4   S186.209,134.3199,184,134.3199z M184,114.3199h-78c-2.209,0-4-1.791-4-4s1.791-4,4-4h78c2.209,0,4,1.791,4,4   S186.209,114.3199,184,114.3199z M184,94.3199h-78c-2.209,0-4-1.791-4-4s1.791-4,4-4h78c2.209,0,4,1.791,4,4   S186.209,94.3199,184,94.3199z"/>
	<rect x="44" y="94.3199" fill="#5CB0FF" width="40" height="72"/>
	<path fill="#5CB0FF" d="M211.9922,62.3199H12.0078C9.7988,62.3199,8,64.1187,8,66.3316v135.9766   c0,2.2129,1.7988,4.0117,4.0078,4.0117h199.9844c2.209,0,4.0078-1.7988,4.0078-4.0117V66.3316   C216,64.1187,214.2012,62.3199,211.9922,62.3199z M134,202.3199H90c-2.209,0-4-1.791-4-4s1.791-4,4-4h44c2.209,0,4,1.791,4,4   S136.209,202.3199,134,202.3199z M208,190.3199H16v-120h192V190.3199z"/>
	<path fill="#1C71DA" d="M211.9922,54.3199H12.0078C5.3867,54.3199,0,59.7086,0,66.3316v135.9766   c0,6.623,5.3867,12.0117,12.0078,12.0117h199.9844c6.6211,0,12.0078-5.3887,12.0078-12.0117V66.3316   C224,59.7086,218.6133,54.3199,211.9922,54.3199z M216,202.3082c0,2.2129-1.7988,4.0117-4.0078,4.0117H12.0078   c-2.209,0-4.0078-1.7988-4.0078-4.0117V66.3316c0-2.2129,1.7988-4.0117,4.0078-4.0117h199.9844   c2.209,0,4.0078,1.7988,4.0078,4.0117V202.3082z"/>
	<path fill="#1C71DA" d="M16,190.3199h192v-120H16V190.3199z M24,78.3199h176v104H24V78.3199z"/>
	<path fill="#1C71DA" d="M134,194.3199H90c-2.209,0-4,1.791-4,4s1.791,4,4,4h44c2.209,0,4-1.791,4-4S136.209,194.3199,134,194.3199z   "/>
	<path fill="#1C71DA" d="M184,86.3199h-78c-2.209,0-4,1.791-4,4s1.791,4,4,4h78c2.209,0,4-1.791,4-4S186.209,86.3199,184,86.3199z"/>
	<path fill="#1C71DA" d="M184,106.3199h-78c-2.209,0-4,1.791-4,4s1.791,4,4,4h78c2.209,0,4-1.791,4-4S186.209,106.3199,184,106.3199   z"/>
	<path fill="#1C71DA" d="M184,126.3199h-78c-2.209,0-4,1.791-4,4s1.791,4,4,4h78c2.209,0,4-1.791,4-4S186.209,126.3199,184,126.3199   z"/>
	<path fill="#1C71DA" d="M184,146.3199h-78c-2.209,0-4,1.791-4,4s1.791,4,4,4h78c2.209,0,4-1.791,4-4S186.209,146.3199,184,146.3199   z"/>
	<path fill="#1C71DA" d="M84.8867,35.4918c-1.5625,1.5625-1.5625,4.0938,0,5.6562s4.0938,1.5625,5.6562,0   c14.0391-14.0352,36.875-14.0352,50.9141,0c0.7812,0.7812,1.8047,1.1719,2.8281,1.1719s2.0469-0.3906,2.8281-1.1719   c1.5625-1.5625,1.5625-4.0938,0-5.6562C129.957,18.3355,102.043,18.3355,84.8867,35.4918z"/>
	<path fill="#1C71DA" d="M73.5742,29.148C84.9062,17.816,99.9727,11.5738,116,11.5738s31.0938,6.2422,42.4258,17.5742   c0.7812,0.7812,1.8047,1.1719,2.8281,1.1719s2.0469-0.3906,2.8281-1.1719c1.5625-1.5625,1.5625-4.0938,0-5.6562   C151.2402,10.648,134.1641,3.5738,116,3.5738s-35.2402,7.0742-48.082,19.918c-1.5625,1.5625-1.5625,4.0938,0,5.6562   S72.0117,30.7105,73.5742,29.148z"/>
	<path fill="#1C71DA" d="M88,86.3199H40c-2.209,0-4,1.791-4,4v80c0,2.209,1.791,4,4,4h48c2.209,0,4-1.791,4-4v-80   C92,88.1109,90.209,86.3199,88,86.3199z M84,166.3199H44v-72h40V166.3199z"/>
</g>
<path fill="#FF5D5D" d="M28.2524,22.1436c-1.0239,0-2.0474-0.3906-2.8286-1.1714c-1.562-1.5625-1.562-4.0947,0-5.6572  L39.5659,1.1729c1.5625-1.5615,4.0947-1.5615,5.6572,0c1.562,1.5625,1.562,4.0947,0,5.6572L31.0811,20.9722  C30.2998,21.753,29.2764,22.1436,28.2524,22.1436z"/>
<path fill="#FF5D5D" d="M42.3945,22.1422c-1.0239,0-2.0474-0.3906-2.8286-1.1714L25.4238,6.8282  c-1.562-1.5625-1.562-4.0952,0-5.6572c1.563-1.5615,4.0952-1.561,5.6572,0l14.1421,14.1426c1.562,1.5625,1.562,4.0952,0,5.6572  C44.4419,21.7515,43.418,22.1422,42.3945,22.1422z"/>
<path fill="#00D40B" d="M218.2524,42.1436c-7.7197,0-14-6.2803-14-14s6.2803-14,14-14s14,6.2803,14,14  S225.9722,42.1436,218.2524,42.1436z M218.2524,22.1436c-3.3086,0-6,2.6914-6,6s2.6914,6,6,6s6-2.6914,6-6  S221.561,22.1436,218.2524,22.1436z"/>
<path fill="#FFC504" d="M63.5659,148.7691c-1.0239,0-2.0474-0.3906-2.8286-1.1714l-11.3135-11.3135  c-1.562-1.5625-1.562-4.0947,0-5.6572l11.3135-11.3135c1.5625-1.5615,4.0952-1.5615,5.6567,0l11.314,11.3135  c0.7505,0.7505,1.1719,1.7676,1.1719,2.8286s-0.4214,2.0781-1.1719,2.8286l-11.314,11.3135  C65.6133,148.3785,64.5894,148.7691,63.5659,148.7691z M57.9092,133.4556l5.6567,5.6567l5.6572-5.6567l-5.6572-5.6567  L57.9092,133.4556z"/>
</svg>