<svg width="164" height="50" viewBox="0 0 164 50" fill="none" xmlns="http://www.w3.org/2000/svg">
<mask id="path-1-outside-1_25_285" maskUnits="userSpaceOnUse" x="-1" y="-0.825317" width="168" height="52" fill="black">
<rect fill="white" x="-1" y="-0.825317" width="168" height="52"/>
<path d="M17.3438 0.799683V16.7997C16.0104 11.0705 14.8125 7.23718 13.75 5.29968C12.7083 3.36218 11.4271 2.39343 9.90625 2.39343C8.71875 2.39343 7.8125 3.08093 7.1875 4.45593C6.5625 5.83093 6.25 7.85177 6.25 10.5184C6.25 13.3309 6.58333 15.6018 7.25 17.3309C7.9375 19.0393 9.29167 20.883 11.3125 22.8622C14.2917 25.8205 16.2188 28.2788 17.0938 30.2372C17.9688 32.1747 18.4062 34.4351 18.4062 37.0184C18.4062 40.7059 17.5521 43.7268 15.8438 46.0809C14.1562 48.4351 12.0104 49.6122 9.40625 49.6122C7.98958 49.6122 6.76042 49.0705 5.71875 47.9872C4.67708 46.9038 3.75 45.1851 2.9375 42.8309L0.75 47.3309V29.2059C2.375 36.7059 3.79167 41.7476 5 44.3309C6.20833 46.9143 7.65625 48.2059 9.34375 48.2059C11.0312 48.2059 12.2708 47.3205 13.0625 45.5497C13.8542 43.7788 14.25 40.9976 14.25 37.2059C14.25 33.5184 13.9167 30.758 13.25 28.9247C12.5833 27.0913 11.4062 25.3518 9.71875 23.7059C9.44792 23.4559 9.03125 23.0809 8.46875 22.5809C5.94792 20.3518 4.20833 18.2893 3.25 16.3934C2.9375 15.7893 2.6875 14.9559 2.5 13.8934C2.3125 12.8309 2.21875 11.7059 2.21875 10.5184C2.21875 7.78927 2.94792 5.53927 4.40625 3.76843C5.88542 1.9976 7.73958 1.11218 9.96875 1.11218C11.1354 1.11218 12.1562 1.51843 13.0312 2.33093C13.9062 3.1226 14.6771 4.36218 15.3438 6.04968L17.3438 0.799683ZM28.1562 1.61218L27.1875 20.8934C27.875 18.8726 28.6979 17.3309 29.6562 16.2684C30.6146 15.2059 31.6562 14.6747 32.7812 14.6747C34.9688 14.6747 36.8125 16.1643 38.3125 19.1434C39.8125 22.1226 40.5625 25.9038 40.5625 30.4872C40.5625 33.7163 40.125 36.6538 39.25 39.2997C38.375 41.9247 37 44.4038 35.125 46.7372L40.5 49.1747H31.8125C33.6667 46.7997 35.0208 44.133 35.875 41.1747C36.75 38.1955 37.1875 34.6955 37.1875 30.6747C37.1875 25.7163 36.8125 22.0601 36.0625 19.7059C35.3125 17.3309 34.1458 16.1434 32.5625 16.1434C31.3125 16.1434 30.1042 17.2476 28.9375 19.4559C27.7708 21.6643 27.125 24.2059 27 27.0809L26 49.1747H20.1562L24.375 46.6747V4.11218L20.1562 1.61218H28.1562ZM58.5312 31.3309C58.5312 27.1434 57.9479 23.5913 56.7812 20.6747C55.6354 17.7372 54.3229 16.2684 52.8438 16.2684C51.2396 16.2684 50.0417 17.6226 49.25 20.3309C48.4792 23.0393 48.0938 27.133 48.0938 32.6122C48.0938 38.3413 48.4375 42.3518 49.125 44.6434C49.8333 46.9351 51 48.0809 52.625 48.0809C54.25 48.0809 55.6354 46.4976 56.7812 43.3309C57.9479 40.1643 58.5312 36.1643 58.5312 31.3309ZM65.0625 49.1747H58.0938V43.2997C57.3438 45.4247 56.4896 47.0288 55.5312 48.1122C54.5938 49.1955 53.5625 49.7372 52.4375 49.7372C50 49.7372 48.0417 48.1747 46.5625 45.0497C45.1042 41.9247 44.375 37.6851 44.375 32.3309C44.375 27.1018 45.1667 22.8518 46.75 19.5809C48.3333 16.3101 50.3438 14.6747 52.7812 14.6747C54.0521 14.6747 55.1875 15.4038 56.1875 16.8622C57.2083 18.3205 58.0312 20.4351 58.6562 23.2059L59.2188 15.2059H64.8125L60.8438 17.6122V46.5497L65.0625 49.1747ZM65.5312 49.1747L69.5 46.6747V17.5497L65.5312 15.2059H71.375L71.625 24.0184C72.2292 21.0184 73.0729 18.7163 74.1562 17.1122C75.2396 15.4872 76.4583 14.6747 77.8125 14.6747C78.9167 14.6747 79.8958 14.9663 80.75 15.5497C81.6042 16.133 82.4167 17.0601 83.1875 18.3309C83.9167 17.0809 84.6667 16.1643 85.4375 15.5809C86.2083 14.9768 87.0417 14.6747 87.9375 14.6747C90.125 14.6747 91.9688 16.1643 93.4688 19.1434C94.9896 22.1226 95.75 25.9038 95.75 30.4872C95.75 33.7163 95.3021 36.6538 94.4062 39.2997C93.5312 41.9247 92.1667 44.4038 90.3125 46.7372L95.625 49.1747H86.9062C88.7812 46.7788 90.1562 44.0913 91.0312 41.1122C91.9062 38.133 92.3438 34.6122 92.3438 30.5497C92.3438 25.5288 91.9583 21.8726 91.1875 19.5809C90.4375 17.2893 89.25 16.1434 87.625 16.1434C86.9167 16.1434 86.2604 16.4351 85.6562 17.0184C85.0729 17.6018 84.4896 18.508 83.9062 19.7372C84.2188 20.633 84.4583 21.5809 84.625 22.5809C84.7917 23.5601 84.875 24.5913 84.875 25.6747C84.875 28.4247 84.5104 31.3518 83.7812 34.4559C83.0729 37.5601 82 40.8413 80.5625 44.2997L84.4688 46.6747H75.0625L79.0312 44.2997C79.9271 41.3413 80.5938 38.5184 81.0312 35.8309C81.4896 33.1226 81.7188 30.5705 81.7188 28.1747C81.7188 24.5913 81.3125 21.6955 80.5 19.4872C79.6875 17.258 78.6667 16.1434 77.4375 16.1434C76.1042 16.1434 74.8229 17.7893 73.5938 21.0809C72.3646 24.3726 71.75 28.1434 71.75 32.3934C71.75 34.8101 71.8646 37.4455 72.0938 40.2997C72.3438 43.1538 72.6979 46.1122 73.1562 49.1747H65.5312ZM117.5 16.4559L113.625 18.9559L108.312 49.1747H102.406L106.5 46.8622L100.312 17.7372L96.0625 15.2059H103.812L107.531 45.7059L112.281 18.9559L108.156 16.4559H117.5ZM130.281 30.2997V28.1747C130.281 24.508 129.906 21.6122 129.156 19.4872C128.406 17.3413 127.396 16.2684 126.125 16.2684C124.688 16.2684 123.573 17.4455 122.781 19.7997C121.99 22.133 121.531 25.633 121.406 30.2997H130.281ZM133.75 31.5809H121.406C121.406 37.6643 121.802 41.9351 122.594 44.3934C123.406 46.8518 124.76 48.0809 126.656 48.0809C127.865 48.0809 128.948 47.133 129.906 45.2372C130.885 43.3205 131.844 40.2163 132.781 35.9247V49.0497L131.562 44.3622C130.792 46.258 129.99 47.633 129.156 48.4872C128.344 49.3205 127.417 49.7372 126.375 49.7372C123.896 49.7372 121.896 48.1851 120.375 45.0809C118.875 41.9768 118.125 37.7997 118.125 32.5497C118.125 27.383 118.906 23.1122 120.469 19.7372C122.031 16.3622 123.917 14.6747 126.125 14.6747C128.125 14.6747 129.896 16.133 131.438 19.0497C132.979 21.9455 133.75 25.4351 133.75 29.5184V31.5809ZM148.594 30.2997V28.1747C148.594 24.508 148.219 21.6122 147.469 19.4872C146.719 17.3413 145.708 16.2684 144.438 16.2684C143 16.2684 141.885 17.4455 141.094 19.7997C140.302 22.133 139.844 25.633 139.719 30.2997H148.594ZM152.062 31.5809H139.719C139.719 37.6643 140.115 41.9351 140.906 44.3934C141.719 46.8518 143.073 48.0809 144.969 48.0809C146.177 48.0809 147.26 47.133 148.219 45.2372C149.198 43.3205 150.156 40.2163 151.094 35.9247V49.0497L149.875 44.3622C149.104 46.258 148.302 47.633 147.469 48.4872C146.656 49.3205 145.729 49.7372 144.688 49.7372C142.208 49.7372 140.208 48.1851 138.688 45.0809C137.188 41.9768 136.438 37.7997 136.438 32.5497C136.438 27.383 137.219 23.1122 138.781 19.7372C140.344 16.3622 142.229 14.6747 144.438 14.6747C146.438 14.6747 148.208 16.133 149.75 19.0497C151.292 21.9455 152.062 25.4351 152.062 29.5184V31.5809ZM153.938 49.1747L157.781 46.6747V4.36218L153.281 1.61218H161.219L159.312 46.6747L163.219 49.1747H153.938Z"/>
</mask>
<g filter="url(#filter0_i_25_285)">
<path d="M17.3438 0.799683V16.7997C16.0104 11.0705 14.8125 7.23718 13.75 5.29968C12.7083 3.36218 11.4271 2.39343 9.90625 2.39343C8.71875 2.39343 7.8125 3.08093 7.1875 4.45593C6.5625 5.83093 6.25 7.85177 6.25 10.5184C6.25 13.3309 6.58333 15.6018 7.25 17.3309C7.9375 19.0393 9.29167 20.883 11.3125 22.8622C14.2917 25.8205 16.2188 28.2788 17.0938 30.2372C17.9688 32.1747 18.4062 34.4351 18.4062 37.0184C18.4062 40.7059 17.5521 43.7268 15.8438 46.0809C14.1562 48.4351 12.0104 49.6122 9.40625 49.6122C7.98958 49.6122 6.76042 49.0705 5.71875 47.9872C4.67708 46.9038 3.75 45.1851 2.9375 42.8309L0.75 47.3309V29.2059C2.375 36.7059 3.79167 41.7476 5 44.3309C6.20833 46.9143 7.65625 48.2059 9.34375 48.2059C11.0312 48.2059 12.2708 47.3205 13.0625 45.5497C13.8542 43.7788 14.25 40.9976 14.25 37.2059C14.25 33.5184 13.9167 30.758 13.25 28.9247C12.5833 27.0913 11.4062 25.3518 9.71875 23.7059C9.44792 23.4559 9.03125 23.0809 8.46875 22.5809C5.94792 20.3518 4.20833 18.2893 3.25 16.3934C2.9375 15.7893 2.6875 14.9559 2.5 13.8934C2.3125 12.8309 2.21875 11.7059 2.21875 10.5184C2.21875 7.78927 2.94792 5.53927 4.40625 3.76843C5.88542 1.9976 7.73958 1.11218 9.96875 1.11218C11.1354 1.11218 12.1562 1.51843 13.0312 2.33093C13.9062 3.1226 14.6771 4.36218 15.3438 6.04968L17.3438 0.799683ZM28.1562 1.61218L27.1875 20.8934C27.875 18.8726 28.6979 17.3309 29.6562 16.2684C30.6146 15.2059 31.6562 14.6747 32.7812 14.6747C34.9688 14.6747 36.8125 16.1643 38.3125 19.1434C39.8125 22.1226 40.5625 25.9038 40.5625 30.4872C40.5625 33.7163 40.125 36.6538 39.25 39.2997C38.375 41.9247 37 44.4038 35.125 46.7372L40.5 49.1747H31.8125C33.6667 46.7997 35.0208 44.133 35.875 41.1747C36.75 38.1955 37.1875 34.6955 37.1875 30.6747C37.1875 25.7163 36.8125 22.0601 36.0625 19.7059C35.3125 17.3309 34.1458 16.1434 32.5625 16.1434C31.3125 16.1434 30.1042 17.2476 28.9375 19.4559C27.7708 21.6643 27.125 24.2059 27 27.0809L26 49.1747H20.1562L24.375 46.6747V4.11218L20.1562 1.61218H28.1562ZM58.5312 31.3309C58.5312 27.1434 57.9479 23.5913 56.7812 20.6747C55.6354 17.7372 54.3229 16.2684 52.8438 16.2684C51.2396 16.2684 50.0417 17.6226 49.25 20.3309C48.4792 23.0393 48.0938 27.133 48.0938 32.6122C48.0938 38.3413 48.4375 42.3518 49.125 44.6434C49.8333 46.9351 51 48.0809 52.625 48.0809C54.25 48.0809 55.6354 46.4976 56.7812 43.3309C57.9479 40.1643 58.5312 36.1643 58.5312 31.3309ZM65.0625 49.1747H58.0938V43.2997C57.3438 45.4247 56.4896 47.0288 55.5312 48.1122C54.5938 49.1955 53.5625 49.7372 52.4375 49.7372C50 49.7372 48.0417 48.1747 46.5625 45.0497C45.1042 41.9247 44.375 37.6851 44.375 32.3309C44.375 27.1018 45.1667 22.8518 46.75 19.5809C48.3333 16.3101 50.3438 14.6747 52.7812 14.6747C54.0521 14.6747 55.1875 15.4038 56.1875 16.8622C57.2083 18.3205 58.0312 20.4351 58.6562 23.2059L59.2188 15.2059H64.8125L60.8438 17.6122V46.5497L65.0625 49.1747ZM65.5312 49.1747L69.5 46.6747V17.5497L65.5312 15.2059H71.375L71.625 24.0184C72.2292 21.0184 73.0729 18.7163 74.1562 17.1122C75.2396 15.4872 76.4583 14.6747 77.8125 14.6747C78.9167 14.6747 79.8958 14.9663 80.75 15.5497C81.6042 16.133 82.4167 17.0601 83.1875 18.3309C83.9167 17.0809 84.6667 16.1643 85.4375 15.5809C86.2083 14.9768 87.0417 14.6747 87.9375 14.6747C90.125 14.6747 91.9688 16.1643 93.4688 19.1434C94.9896 22.1226 95.75 25.9038 95.75 30.4872C95.75 33.7163 95.3021 36.6538 94.4062 39.2997C93.5312 41.9247 92.1667 44.4038 90.3125 46.7372L95.625 49.1747H86.9062C88.7812 46.7788 90.1562 44.0913 91.0312 41.1122C91.9062 38.133 92.3438 34.6122 92.3438 30.5497C92.3438 25.5288 91.9583 21.8726 91.1875 19.5809C90.4375 17.2893 89.25 16.1434 87.625 16.1434C86.9167 16.1434 86.2604 16.4351 85.6562 17.0184C85.0729 17.6018 84.4896 18.508 83.9062 19.7372C84.2188 20.633 84.4583 21.5809 84.625 22.5809C84.7917 23.5601 84.875 24.5913 84.875 25.6747C84.875 28.4247 84.5104 31.3518 83.7812 34.4559C83.0729 37.5601 82 40.8413 80.5625 44.2997L84.4688 46.6747H75.0625L79.0312 44.2997C79.9271 41.3413 80.5938 38.5184 81.0312 35.8309C81.4896 33.1226 81.7188 30.5705 81.7188 28.1747C81.7188 24.5913 81.3125 21.6955 80.5 19.4872C79.6875 17.258 78.6667 16.1434 77.4375 16.1434C76.1042 16.1434 74.8229 17.7893 73.5938 21.0809C72.3646 24.3726 71.75 28.1434 71.75 32.3934C71.75 34.8101 71.8646 37.4455 72.0938 40.2997C72.3438 43.1538 72.6979 46.1122 73.1562 49.1747H65.5312ZM117.5 16.4559L113.625 18.9559L108.312 49.1747H102.406L106.5 46.8622L100.312 17.7372L96.0625 15.2059H103.812L107.531 45.7059L112.281 18.9559L108.156 16.4559H117.5ZM130.281 30.2997V28.1747C130.281 24.508 129.906 21.6122 129.156 19.4872C128.406 17.3413 127.396 16.2684 126.125 16.2684C124.688 16.2684 123.573 17.4455 122.781 19.7997C121.99 22.133 121.531 25.633 121.406 30.2997H130.281ZM133.75 31.5809H121.406C121.406 37.6643 121.802 41.9351 122.594 44.3934C123.406 46.8518 124.76 48.0809 126.656 48.0809C127.865 48.0809 128.948 47.133 129.906 45.2372C130.885 43.3205 131.844 40.2163 132.781 35.9247V49.0497L131.562 44.3622C130.792 46.258 129.99 47.633 129.156 48.4872C128.344 49.3205 127.417 49.7372 126.375 49.7372C123.896 49.7372 121.896 48.1851 120.375 45.0809C118.875 41.9768 118.125 37.7997 118.125 32.5497C118.125 27.383 118.906 23.1122 120.469 19.7372C122.031 16.3622 123.917 14.6747 126.125 14.6747C128.125 14.6747 129.896 16.133 131.438 19.0497C132.979 21.9455 133.75 25.4351 133.75 29.5184V31.5809ZM148.594 30.2997V28.1747C148.594 24.508 148.219 21.6122 147.469 19.4872C146.719 17.3413 145.708 16.2684 144.438 16.2684C143 16.2684 141.885 17.4455 141.094 19.7997C140.302 22.133 139.844 25.633 139.719 30.2997H148.594ZM152.062 31.5809H139.719C139.719 37.6643 140.115 41.9351 140.906 44.3934C141.719 46.8518 143.073 48.0809 144.969 48.0809C146.177 48.0809 147.26 47.133 148.219 45.2372C149.198 43.3205 150.156 40.2163 151.094 35.9247V49.0497L149.875 44.3622C149.104 46.258 148.302 47.633 147.469 48.4872C146.656 49.3205 145.729 49.7372 144.688 49.7372C142.208 49.7372 140.208 48.1851 138.688 45.0809C137.188 41.9768 136.438 37.7997 136.438 32.5497C136.438 27.383 137.219 23.1122 138.781 19.7372C140.344 16.3622 142.229 14.6747 144.438 14.6747C146.438 14.6747 148.208 16.133 149.75 19.0497C151.292 21.9455 152.062 25.4351 152.062 29.5184V31.5809ZM153.938 49.1747L157.781 46.6747V4.36218L153.281 1.61218H161.219L159.312 46.6747L163.219 49.1747H153.938Z" fill="black"/>
</g>
<path d="M17.3438 0.799683H18.3438L16.4093 0.443687L17.3438 0.799683ZM17.3438 16.7997L16.3698 17.0264L18.3438 16.7997H17.3438ZM13.75 5.29968L12.8692 5.77323L12.8732 5.78052L13.75 5.29968ZM7.25 17.3309L6.31694 17.6907L6.31958 17.6975L6.32231 17.7043L7.25 17.3309ZM11.3125 22.8622L12.0171 22.1526L12.0122 22.1477L11.3125 22.8622ZM17.0938 30.2372L16.1807 30.6451L16.1824 30.6488L17.0938 30.2372ZM15.8438 46.0809L15.0344 45.4936L15.031 45.4983L15.8438 46.0809ZM2.9375 42.8309L3.88278 42.5047L3.09449 40.2207L2.03813 42.3937L2.9375 42.8309ZM0.75 47.3309H-0.25L1.64937 47.7681L0.75 47.3309ZM0.75 29.2059L1.72732 28.9942L-0.25 29.2059H0.75ZM9.71875 23.7059L10.417 22.99L10.4071 22.9804L10.397 22.9711L9.71875 23.7059ZM8.46875 22.5809L9.13312 21.8335L9.13119 21.8318L8.46875 22.5809ZM3.25 16.3934L4.1425 15.9423L4.13822 15.934L3.25 16.3934ZM4.40625 3.76843L3.63875 3.12734L3.63432 3.13273L4.40625 3.76843ZM13.0312 2.33093L12.3507 3.06379L12.3603 3.07247L13.0312 2.33093ZM15.3438 6.04968L14.4137 6.41711L15.3607 8.81421L16.2782 6.40568L15.3438 6.04968ZM16.3438 0.799683V16.7997H18.3438V0.799683H16.3438ZM18.3177 16.573C16.987 10.8551 15.7643 6.89301 14.6268 4.81885L12.8732 5.78052C13.8607 7.58135 15.0338 11.2859 16.3698 17.0264L18.3177 16.573ZM14.6308 4.82615C13.5018 2.72627 11.9483 1.39343 9.90625 1.39343V3.39343C10.9059 3.39343 11.9149 3.9981 12.8692 5.77322L14.6308 4.82615ZM9.90625 1.39343C9.10453 1.39343 8.36657 1.63063 7.73155 2.11237C7.11002 2.58387 6.63662 3.25126 6.27713 4.04213L8.09787 4.86974C8.36338 4.2856 8.65561 3.92174 8.94032 3.70575C9.21155 3.49999 9.52047 3.39343 9.90625 3.39343V1.39343ZM6.27713 4.04213C5.56395 5.61114 5.25 7.80196 5.25 10.5184H7.25C7.25 7.90157 7.56105 6.05072 8.09787 4.86974L6.27713 4.04213ZM5.25 10.5184C5.25 13.3968 5.58929 15.8033 6.31694 17.6907L8.18306 16.9712C7.57737 15.4002 7.25 13.2651 7.25 10.5184H5.25ZM6.32231 17.7043C7.08154 19.5909 8.54083 21.5474 10.6128 23.5766L12.0122 22.1477C10.0425 20.2187 8.79346 18.4877 8.17769 16.9576L6.32231 17.7043ZM10.6079 23.5718C13.567 26.5102 15.384 28.8619 16.1807 30.6451L18.0068 29.8292C17.0535 27.6958 15.0164 25.1309 12.0171 22.1526L10.6079 23.5718ZM16.1824 30.6488C16.9878 32.4322 17.4062 34.5471 17.4062 37.0184H19.4062C19.4062 34.3231 18.9497 31.9172 18.0051 29.8256L16.1824 30.6488ZM17.4062 37.0184C17.4062 40.5518 16.5891 43.3511 15.0344 45.4936L16.6531 46.6683C18.515 44.1024 19.4062 40.8601 19.4062 37.0184H17.4062ZM15.031 45.4983C13.5068 47.6246 11.6482 48.6122 9.40625 48.6122V50.6122C12.3726 50.6122 14.8057 49.2456 16.6565 46.6635L15.031 45.4983ZM9.40625 48.6122C8.27955 48.6122 7.30553 48.1947 6.43958 47.2941L4.99792 48.6803C6.21531 49.9464 7.69962 50.6122 9.40625 50.6122V48.6122ZM6.43958 47.2941C5.54355 46.3622 4.67517 44.8006 3.88278 42.5047L1.99222 43.1572C2.82483 45.5696 3.81062 47.4455 4.99792 48.6803L6.43958 47.2941ZM2.03813 42.3937L-0.149368 46.8937L1.64937 47.7681L3.83687 43.2681L2.03813 42.3937ZM1.75 47.3309V29.2059H-0.25V47.3309H1.75ZM-0.227323 29.4177C1.39554 36.9078 2.8316 42.0553 4.09419 44.7546L5.90581 43.9072C4.75173 41.4399 3.35446 36.5041 1.72732 28.9942L-0.227323 29.4177ZM4.09419 44.7546C5.34541 47.4296 7.04592 49.2059 9.34375 49.2059V47.2059C8.26658 47.2059 7.07126 46.3989 5.90581 43.9072L4.09419 44.7546ZM9.34375 49.2059C10.3724 49.2059 11.3127 48.9324 12.1203 48.3556C12.9192 47.785 13.5265 46.9619 13.9754 45.9578L12.1496 45.1416C11.8068 45.9083 11.3985 46.4134 10.9578 46.7281C10.5258 47.0367 10.0026 47.2059 9.34375 47.2059V49.2059ZM13.9754 45.9578C14.8566 43.9868 15.25 41.0294 15.25 37.2059H13.25C13.25 40.9658 12.8517 43.5709 12.1496 45.1416L13.9754 45.9578ZM15.25 37.2059C15.25 33.4865 14.9175 30.5841 14.1898 28.5829L12.3102 29.2664C12.9158 30.9319 13.25 33.5503 13.25 37.2059H15.25ZM14.1898 28.5829C13.4622 26.5819 12.19 24.7193 10.417 22.99L9.02054 24.4218C10.6225 25.9842 11.7045 27.6008 12.3102 29.2664L14.1898 28.5829ZM10.397 22.9711C10.119 22.7145 9.69654 22.3343 9.13311 21.8335L7.80439 23.3283C8.36596 23.8275 8.77685 24.1974 9.04047 24.4407L10.397 22.9711ZM9.13119 21.8318C6.65622 19.6432 5.02016 17.6786 4.14246 15.9423L2.35754 16.8446C3.3965 18.8999 5.23962 21.0603 7.80631 23.33L9.13119 21.8318ZM4.13822 15.934C3.89114 15.4563 3.66373 14.7337 3.48478 13.7196L1.51522 14.0672C1.71127 15.1782 1.98386 16.1222 2.36178 16.8529L4.13822 15.934ZM3.48478 13.7196C3.30836 12.7199 3.21875 11.6534 3.21875 10.5184H1.21875C1.21875 11.7584 1.31664 12.9419 1.51522 14.0672L3.48478 13.7196ZM3.21875 10.5184C3.21875 7.9753 3.89405 5.96344 5.17818 4.40414L3.63432 3.13273C2.00178 5.1151 1.21875 7.60323 1.21875 10.5184H3.21875ZM5.17373 4.4095C6.47057 2.85695 8.04772 2.11218 9.96875 2.11218V0.112183C7.43145 0.112183 5.30026 1.13825 3.63877 3.12736L5.17373 4.4095ZM9.96875 2.11218C10.8765 2.11218 11.656 2.41851 12.3508 3.06373L13.7117 1.59814C12.6565 0.618353 11.3943 0.112183 9.96875 0.112183V2.11218ZM12.3603 3.07247C13.0765 3.72039 13.776 4.80293 14.4137 6.41711L16.2738 5.68225C15.5782 3.92143 14.736 2.52481 13.7022 1.5894L12.3603 3.07247ZM16.2782 6.40568L18.2782 1.15568L16.4093 0.443687L14.4093 5.69369L16.2782 6.40568ZM28.1562 1.61218L29.155 1.66236L29.2078 0.612183H28.1562V1.61218ZM27.1875 20.8934L26.1888 20.8433L28.1342 21.2155L27.1875 20.8934ZM39.25 39.2997L40.1987 39.6159L40.1994 39.6137L39.25 39.2997ZM35.125 46.7372L34.3455 46.1108L33.5381 47.1156L34.712 47.6479L35.125 46.7372ZM40.5 49.1747V50.1747L40.913 48.264L40.5 49.1747ZM31.8125 49.1747L31.0243 48.5593L29.7631 50.1747H31.8125V49.1747ZM35.875 41.1747L34.9155 40.8929L34.9142 40.8973L35.875 41.1747ZM36.0625 19.7059L35.1089 20.0071L35.1097 20.0095L36.0625 19.7059ZM27 27.0809L27.999 27.1261L27.9991 27.1244L27 27.0809ZM26 49.1747V50.1747H26.9558L26.999 49.2199L26 49.1747ZM20.1562 49.1747L19.6464 48.3144L16.5072 50.1747H20.1562V49.1747ZM24.375 46.6747L24.8848 47.535L25.375 47.2445V46.6747H24.375ZM24.375 4.11218H25.375V3.54238L24.8848 3.25189L24.375 4.11218ZM20.1562 1.61218V0.612183H16.5072L19.6464 2.47247L20.1562 1.61218ZM27.1575 1.562L26.1888 20.8433L28.1862 20.9436L29.155 1.66236L27.1575 1.562ZM28.1342 21.2155C28.7975 19.2658 29.5648 17.8629 30.3988 16.9382L28.9137 15.5987C27.831 16.799 26.9525 18.4794 26.2408 20.5714L28.1342 21.2155ZM30.3988 16.9382C31.2226 16.0249 32.0123 15.6747 32.7812 15.6747V13.6747C31.3002 13.6747 30.0066 14.387 28.9137 15.5987L30.3988 16.9382ZM32.7812 15.6747C34.4126 15.6747 35.9905 16.7553 37.4193 19.5931L39.2057 18.6937C37.6345 15.5732 35.5249 13.6747 32.7812 13.6747V15.6747ZM37.4193 19.5931C38.8278 22.3906 39.5625 26.0047 39.5625 30.4872H41.5625C41.5625 25.803 40.7972 21.8546 39.2057 18.6937L37.4193 19.5931ZM39.5625 30.4872C39.5625 33.6262 39.1372 36.4558 38.3006 38.9857L40.1994 39.6137C41.1128 36.8519 41.5625 33.8065 41.5625 30.4872H39.5625ZM38.3013 38.9835C37.4668 41.487 36.1522 43.8624 34.3455 46.1108L35.9045 47.3636C37.8478 44.9453 39.2832 42.3624 40.1987 39.6159L38.3013 38.9835ZM34.712 47.6479L40.087 50.0854L40.913 48.264L35.538 45.8265L34.712 47.6479ZM40.5 48.1747H31.8125V50.1747H40.5V48.1747ZM32.6007 49.7901C34.5352 47.3122 35.947 44.5303 36.8358 41.4521L34.9142 40.8973C34.0947 43.7357 32.7981 46.2872 31.0243 48.5593L32.6007 49.7901ZM36.8345 41.4565C37.7429 38.3634 38.1875 34.7644 38.1875 30.6747H36.1875C36.1875 34.6266 35.7571 38.0276 34.9155 40.8929L36.8345 41.4565ZM38.1875 30.6747C38.1875 25.6952 37.8143 21.9103 37.0153 19.4024L35.1097 20.0095C35.8107 22.2099 36.1875 25.7375 36.1875 30.6747H38.1875ZM37.0161 19.4048C36.6152 18.1354 36.0733 17.0814 35.3383 16.3332C34.5778 15.5591 33.6375 15.1434 32.5625 15.1434V17.1434C33.0709 17.1434 33.5056 17.3215 33.9117 17.7349C34.3433 18.1743 34.7598 18.9014 35.1089 20.0071L37.0161 19.4048ZM32.5625 15.1434C31.6185 15.1434 30.7741 15.5663 30.0442 16.2333C29.3227 16.8927 28.6651 17.8307 28.0533 18.9888L29.8217 19.9231C30.3765 18.8728 30.9065 18.1546 31.3933 17.7098C31.8717 17.2726 32.2565 17.1434 32.5625 17.1434V15.1434ZM28.0533 18.9888C26.8076 21.3467 26.1314 24.037 26.0009 27.0375L27.9991 27.1244C28.1186 24.3749 28.734 21.9819 29.8217 19.9231L28.0533 18.9888ZM26.001 27.0357L25.001 49.1295L26.999 49.2199L27.999 27.1261L26.001 27.0357ZM26 48.1747H20.1562V50.1747H26V48.1747ZM20.6661 50.035L24.8848 47.535L23.8652 45.8144L19.6464 48.3144L20.6661 50.035ZM25.375 46.6747V4.11218H23.375V46.6747H25.375ZM24.8848 3.25189L20.6661 0.751891L19.6464 2.47247L23.8652 4.97247L24.8848 3.25189ZM20.1562 2.61218H28.1562V0.612183H20.1562V2.61218ZM56.7812 20.6747L55.8496 21.0381L55.8528 21.0461L56.7812 20.6747ZM49.25 20.3309L48.2901 20.0504L48.2882 20.0572L49.25 20.3309ZM49.125 44.6434L48.1671 44.9308L48.1696 44.9387L49.125 44.6434ZM56.7812 43.3309L55.8429 42.9852L55.8409 42.9907L56.7812 43.3309ZM65.0625 49.1747V50.1747H68.5625L65.5908 48.3256L65.0625 49.1747ZM58.0938 49.1747H57.0938V50.1747H58.0938V49.1747ZM58.0938 43.2997H59.0938L57.1508 42.9669L58.0938 43.2997ZM55.5312 48.1122L54.7822 47.4496L54.7751 47.4578L55.5312 48.1122ZM46.5625 45.0497L45.6563 45.4726L45.6586 45.4775L46.5625 45.0497ZM56.1875 16.8622L55.3627 17.4277L55.3683 17.4356L56.1875 16.8622ZM58.6562 23.2059L57.6808 23.426L59.6538 23.2761L58.6562 23.2059ZM59.2188 15.2059V14.2059H58.2866L58.2212 15.1358L59.2188 15.2059ZM64.8125 15.2059L65.331 16.061L68.3907 14.2059H64.8125V15.2059ZM60.8438 17.6122L60.3253 16.7571L59.8438 17.049V17.6122H60.8438ZM60.8438 46.5497H59.8438V47.1052L60.3154 47.3987L60.8438 46.5497ZM59.5312 31.3309C59.5312 27.0562 58.9365 23.3703 57.7097 20.3033L55.8528 21.0461C56.9593 23.8124 57.5312 27.2307 57.5312 31.3309H59.5312ZM57.7129 20.3113C57.1195 18.7899 56.4523 17.5643 55.6832 16.7037C54.9034 15.8311 53.9542 15.2684 52.8438 15.2684V17.2684C53.2124 17.2684 53.6591 17.4401 54.1918 18.0363C54.7352 18.6444 55.2972 19.6219 55.8496 21.0381L57.7129 20.3113ZM52.8438 15.2684C51.717 15.2684 50.7551 15.7602 49.9932 16.6215C49.2573 17.4534 48.7065 18.626 48.2902 20.0504L50.2098 20.6115C50.5852 19.3275 51.0292 18.4689 51.4912 17.9466C51.9272 17.4538 52.3663 17.2684 52.8438 17.2684V15.2684ZM48.2882 20.0572C47.4782 22.9032 47.0938 27.1104 47.0938 32.6122H49.0938C49.0938 27.1557 49.4802 23.1753 50.2118 20.6047L48.2882 20.0572ZM47.0938 32.6122C47.0938 38.3409 47.4332 42.4841 48.1672 44.9308L50.0828 44.3561C49.4418 42.2194 49.0938 38.3418 49.0938 32.6122H47.0938ZM48.1696 44.9387C48.5515 46.1743 49.0866 47.2043 49.8305 47.935C50.5995 48.6903 51.5486 49.0809 52.625 49.0809V47.0809C52.0764 47.0809 51.6296 46.8987 51.232 46.5081C50.8093 46.093 50.4068 45.4043 50.0804 44.3481L48.1696 44.9387ZM52.625 49.0809C53.8056 49.0809 54.8125 48.4924 55.6354 47.5519C56.4442 46.6276 57.1287 45.3096 57.7216 43.6712L55.8409 42.9907C55.2879 44.5189 54.7069 45.5759 54.1302 46.2349C53.5677 46.8778 53.0694 47.0809 52.625 47.0809V49.0809ZM57.7196 43.6766C58.9406 40.3626 59.5312 36.2355 59.5312 31.3309H57.5312C57.5312 36.093 56.9553 39.9659 55.8429 42.9852L57.7196 43.6766ZM65.0625 48.1747H58.0938V50.1747H65.0625V48.1747ZM59.0938 49.1747V43.2997H57.0938V49.1747H59.0938ZM57.1508 42.9669C56.4223 45.0308 55.6212 46.5012 54.7823 47.4496L56.2802 48.7748C57.3579 47.5565 58.2652 45.8185 59.0367 43.6325L57.1508 42.9669ZM54.7751 47.4578C53.9717 48.3862 53.1966 48.7372 52.4375 48.7372V50.7372C53.9284 50.7372 55.2158 50.0049 56.2874 48.7666L54.7751 47.4578ZM52.4375 48.7372C50.5435 48.7372 48.86 47.5661 47.4664 44.6219L45.6586 45.4775C47.2233 48.7832 49.4565 50.7372 52.4375 50.7372V48.7372ZM47.4687 44.6268C46.0969 41.6872 45.375 37.6116 45.375 32.3309H43.375C43.375 37.7586 44.1115 42.1622 45.6563 45.4726L47.4687 44.6268ZM45.375 32.3309C45.375 27.1912 46.1549 23.1054 47.6501 20.0166L45.8499 19.1452C44.1785 22.5981 43.375 27.0123 43.375 32.3309H45.375ZM47.6501 20.0166C49.1587 16.9002 50.9012 15.6747 52.7812 15.6747V13.6747C49.7863 13.6747 47.508 15.72 45.8499 19.1452L47.6501 20.0166ZM52.7812 15.6747C53.6035 15.6747 54.47 16.1258 55.3628 17.4277L57.0122 16.2967C55.905 14.6819 54.5007 13.6747 52.7812 13.6747V15.6747ZM55.3683 17.4356C56.2834 18.743 57.0693 20.7153 57.6808 23.426L59.6317 22.9859C58.9932 20.1549 58.1333 17.8981 57.0067 16.2887L55.3683 17.4356ZM59.6538 23.2761L60.2163 15.2761L58.2212 15.1358L57.6587 23.1358L59.6538 23.2761ZM59.2188 16.2059H64.8125V14.2059H59.2188V16.2059ZM64.294 14.3508L60.3253 16.7571L61.3622 18.4673L65.331 16.061L64.294 14.3508ZM59.8438 17.6122V46.5497H61.8438V17.6122H59.8438ZM60.3154 47.3987L64.5342 50.0237L65.5908 48.3256L61.3721 45.7006L60.3154 47.3987ZM65.5312 49.1747L64.9983 48.3286L62.0675 50.1747H65.5312V49.1747ZM69.5 46.6747L70.033 47.5208L70.5 47.2266V46.6747H69.5ZM69.5 17.5497H70.5V16.9789L70.0085 16.6886L69.5 17.5497ZM65.5312 15.2059V14.2059H61.8714L65.0227 16.067L65.5312 15.2059ZM71.375 15.2059L72.3746 15.1776L72.347 14.2059H71.375V15.2059ZM71.625 24.0184L70.6254 24.0468L72.6053 24.2159L71.625 24.0184ZM74.1562 17.1122L74.985 17.6719L74.9883 17.6669L74.1562 17.1122ZM80.75 15.5497L80.186 16.3755L80.75 15.5497ZM83.1875 18.3309L82.3325 18.8495L83.2043 20.2868L84.0513 18.8348L83.1875 18.3309ZM85.4375 15.5809L86.0409 16.3783L86.0477 16.3732L86.0544 16.368L85.4375 15.5809ZM93.4688 19.1434L92.5756 19.5931L92.5781 19.5981L93.4688 19.1434ZM94.4062 39.2997L93.4591 38.979L93.4576 38.9835L94.4062 39.2997ZM90.3125 46.7372L89.5296 46.115L88.7358 47.114L89.8955 47.6461L90.3125 46.7372ZM95.625 49.1747V50.1747L96.042 48.2658L95.625 49.1747ZM86.9062 49.1747L86.1187 48.5584L84.8538 50.1747H86.9062V49.1747ZM91.1875 19.5809L90.2371 19.892L90.2397 19.8997L91.1875 19.5809ZM85.6562 17.0184L84.9617 16.299L84.9553 16.3051L84.9491 16.3113L85.6562 17.0184ZM83.9062 19.7372L83.0028 19.3084L82.8269 19.6791L82.962 20.0666L83.9062 19.7372ZM84.625 22.5809L83.6386 22.7453L83.6392 22.7487L84.625 22.5809ZM83.7812 34.4559L82.8077 34.2273L82.8063 34.2335L83.7812 34.4559ZM80.5625 44.2997L79.6391 43.9159L79.3097 44.7083L80.043 45.1541L80.5625 44.2997ZM84.4688 46.6747V47.6747H88.0384L84.9883 45.8202L84.4688 46.6747ZM75.0625 46.6747L74.549 45.8166L71.444 47.6747H75.0625V46.6747ZM79.0312 44.2997L79.5448 45.1578L79.8763 44.9593L79.9883 44.5895L79.0312 44.2997ZM81.0312 35.8309L80.0452 35.6641L80.0442 35.6703L81.0312 35.8309ZM80.5 19.4872L79.5605 19.8296L79.5615 19.8325L80.5 19.4872ZM72.0938 40.2997L71.0969 40.3797L71.0976 40.3869L72.0938 40.2997ZM73.1562 49.1747V50.1747H74.317L74.1452 49.0267L73.1562 49.1747ZM66.0642 50.0208L70.033 47.5208L68.967 45.8286L64.9983 48.3286L66.0642 50.0208ZM70.5 46.6747V17.5497H68.5V46.6747H70.5ZM70.0085 16.6886L66.0398 14.3449L65.0227 16.067L68.9915 18.4107L70.0085 16.6886ZM65.5312 16.2059H71.375V14.2059H65.5312V16.2059ZM70.3754 15.2343L70.6254 24.0468L72.6246 23.9901L72.3746 15.1776L70.3754 15.2343ZM72.6053 24.2159C73.1968 21.2787 74.006 19.1214 74.985 17.6718L73.3275 16.5525C72.1398 18.3113 71.2615 20.7582 70.6447 23.821L72.6053 24.2159ZM74.9883 17.6669C75.9744 16.1878 76.9254 15.6747 77.8125 15.6747V13.6747C75.9913 13.6747 74.5048 14.7866 73.3242 16.5575L74.9883 17.6669ZM77.8125 15.6747C78.7297 15.6747 79.5095 15.9134 80.186 16.3755L81.314 14.7239C80.2822 14.0193 79.1036 13.6747 77.8125 13.6747V15.6747ZM80.186 16.3755C80.8826 16.8512 81.6057 17.6514 82.3325 18.8495L84.0425 17.8123C83.2276 16.4688 82.3257 15.4148 81.314 14.7239L80.186 16.3755ZM84.0513 18.8348C84.7439 17.6475 85.4143 16.8526 86.0409 16.3783L84.8341 14.7835C83.9191 15.476 83.0895 16.5144 82.3237 17.8271L84.0513 18.8348ZM86.0544 16.368C86.6666 15.8881 87.2865 15.6747 87.9375 15.6747V13.6747C86.7968 13.6747 85.75 14.0654 84.8206 14.7939L86.0544 16.368ZM87.9375 15.6747C89.5689 15.6747 91.1467 16.7553 92.5756 19.5931L94.3619 18.6937C92.7908 15.5732 90.6811 13.6747 87.9375 13.6747V15.6747ZM92.5781 19.5981C94.0055 22.3942 94.75 26.0064 94.75 30.4872H96.75C96.75 25.8013 95.9737 21.851 94.3594 18.6888L92.5781 19.5981ZM94.75 30.4872C94.75 33.624 94.3149 36.4512 93.4591 38.979L95.3534 39.6204C96.2892 36.8565 96.75 33.8087 96.75 30.4872H94.75ZM93.4576 38.9835C92.6223 41.4893 91.3167 43.8661 89.5296 46.115L91.0954 47.3593C93.0167 44.9416 94.4402 42.36 95.3549 39.6159L93.4576 38.9835ZM89.8955 47.6461L95.208 50.0836L96.042 48.2658L90.7295 45.8283L89.8955 47.6461ZM95.625 48.1747H86.9062V50.1747H95.625V48.1747ZM87.6938 49.791C89.6483 47.2935 91.0808 44.492 91.9907 41.394L90.0718 40.8304C89.2317 43.6907 87.9142 46.2642 86.1187 48.5584L87.6938 49.791ZM91.9907 41.394C92.8994 38.3001 93.3438 34.68 93.3438 30.5497H91.3438C91.3438 34.5444 90.9131 37.9659 90.0718 40.8304L91.9907 41.394ZM93.3438 30.5497C93.3438 25.5112 92.961 21.717 92.1353 19.2621L90.2397 19.8997C90.9556 22.0282 91.3438 25.5465 91.3438 30.5497H93.3438ZM92.1379 19.2699C91.7339 18.0354 91.1816 17.0096 90.4287 16.2832C89.6518 15.5335 88.701 15.1434 87.625 15.1434V17.1434C88.174 17.1434 88.6294 17.3263 89.04 17.7224C89.4747 18.1419 89.8911 18.8348 90.2371 19.892L92.1379 19.2699ZM87.625 15.1434C86.6103 15.1434 85.7153 15.5714 84.9617 16.299L86.3508 17.7378C86.8056 17.2988 87.223 17.1434 87.625 17.1434V15.1434ZM84.9491 16.3113C84.2494 17.0111 83.6076 18.034 83.0028 19.3084L84.8097 20.1659C85.3715 18.982 85.8964 18.1925 86.3634 17.7255L84.9491 16.3113ZM82.962 20.0666C83.2546 20.9052 83.4807 21.7976 83.6386 22.7453L85.6114 22.4165C85.436 21.3642 85.1829 20.3609 84.8505 19.4078L82.962 20.0666ZM83.6392 22.7487C83.7956 23.6677 83.875 24.6426 83.875 25.6747H85.875C85.875 24.5401 85.7877 23.4525 85.6108 22.4131L83.6392 22.7487ZM83.875 25.6747C83.875 28.3366 83.522 31.1864 82.8077 34.2273L84.7548 34.6846C85.4988 31.5171 85.875 28.5127 85.875 25.6747H83.875ZM82.8063 34.2335C82.1125 37.2739 81.0586 40.5009 79.6391 43.9159L81.4859 44.6835C82.9414 41.1818 84.0333 37.8463 84.7562 34.6784L82.8063 34.2335ZM80.043 45.1541L83.9492 47.5291L84.9883 45.8202L81.082 43.4452L80.043 45.1541ZM84.4688 45.6747H75.0625V47.6747H84.4688V45.6747ZM75.576 47.5328L79.5448 45.1578L78.5177 43.4416L74.549 45.8166L75.576 47.5328ZM79.9883 44.5895C80.8953 41.5944 81.5728 38.7281 82.0183 35.9916L80.0442 35.6703C79.6147 38.3087 78.9589 41.0883 78.0742 44.0099L79.9883 44.5895ZM82.0172 35.9978C82.4836 33.2422 82.7188 30.6338 82.7188 28.1747H80.7188C80.7188 30.5072 80.4956 33.003 80.0453 35.6641L82.0172 35.9978ZM82.7188 28.1747C82.7188 24.5287 82.3071 21.5028 81.4385 19.1419L79.5615 19.8325C80.3179 21.8882 80.7188 24.654 80.7188 28.1747H82.7188ZM81.4395 19.1447C81.0111 17.9694 80.4973 16.9971 79.8624 16.304C79.2095 15.591 78.3951 15.1434 77.4375 15.1434V17.1434C77.7091 17.1434 78.0197 17.2532 78.3876 17.6548C78.7735 18.0762 79.1764 18.7758 79.5605 19.8296L81.4395 19.1447ZM77.4375 15.1434C76.3211 15.1434 75.4094 15.8362 74.6875 16.7635C73.9562 17.7028 73.2863 19.0458 72.6569 20.7311L74.5306 21.4308C75.1304 19.8244 75.7156 18.6986 76.2656 17.9921C76.825 17.2736 77.2206 17.1434 77.4375 17.1434V15.1434ZM72.6569 20.7311C71.3782 24.1554 70.75 28.0483 70.75 32.3934H72.75C72.75 28.2386 73.3509 24.5898 74.5306 21.4308L72.6569 20.7311ZM70.75 32.3934C70.75 34.8411 70.866 37.5036 71.097 40.3797L73.0905 40.2196C72.8631 37.3874 72.75 34.7791 72.75 32.3934H70.75ZM71.0976 40.3869C71.3495 43.263 71.7062 46.2416 72.1673 49.3227L74.1452 49.0267C73.6897 45.9827 73.338 43.0447 73.0899 40.2124L71.0976 40.3869ZM73.1562 48.1747H65.5312V50.1747H73.1562V48.1747ZM117.5 16.4559L118.042 17.2962L120.895 15.4559H117.5V16.4559ZM113.625 18.9559L113.083 18.1156L112.716 18.3525L112.64 18.7828L113.625 18.9559ZM108.312 49.1747V50.1747H109.152L109.297 49.3478L108.312 49.1747ZM102.406 49.1747L101.914 48.304L98.6028 50.1747H102.406V49.1747ZM106.5 46.8622L106.992 47.7329L107.631 47.372L107.478 46.6544L106.5 46.8622ZM100.312 17.7372L101.291 17.5294L101.2 17.1017L100.824 16.878L100.312 17.7372ZM96.0625 15.2059V14.2059H92.4292L95.5508 16.0651L96.0625 15.2059ZM103.812 15.2059L104.805 15.0849L104.698 14.2059H103.812V15.2059ZM107.531 45.7059L106.539 45.827L108.516 45.8808L107.531 45.7059ZM112.281 18.9559L113.266 19.1308L113.386 18.456L112.8 18.1007L112.281 18.9559ZM108.156 16.4559V15.4559H104.577L107.638 17.3111L108.156 16.4559ZM116.958 15.6156L113.083 18.1156L114.167 19.7962L118.042 17.2962L116.958 15.6156ZM112.64 18.7828L107.328 49.0015L109.297 49.3478L114.61 19.1291L112.64 18.7828ZM108.312 48.1747H102.406V50.1747H108.312V48.1747ZM102.898 50.0454L106.992 47.7329L106.008 45.9915L101.914 48.304L102.898 50.0454ZM107.478 46.6544L101.291 17.5294L99.3343 17.945L105.522 47.07L107.478 46.6544ZM100.824 16.878L96.5742 14.3468L95.5508 16.0651L99.8008 18.5963L100.824 16.878ZM96.0625 16.2059H103.812V14.2059H96.0625V16.2059ZM102.82 15.327L106.539 45.827L108.524 45.5849L104.805 15.0849L102.82 15.327ZM108.516 45.8808L113.266 19.1308L111.297 18.7811L106.547 45.5311L108.516 45.8808ZM112.8 18.1007L108.675 15.6007L107.638 17.3111L111.763 19.8111L112.8 18.1007ZM108.156 17.4559H117.5V15.4559H108.156V17.4559ZM130.281 30.2997V31.2997H131.281V30.2997H130.281ZM129.156 19.4872L128.212 19.8171L128.213 19.82L129.156 19.4872ZM122.781 19.7997L123.728 20.121L123.729 20.1184L122.781 19.7997ZM121.406 30.2997L120.407 30.2729L120.379 31.2997H121.406V30.2997ZM133.75 31.5809V32.5809H134.75V31.5809H133.75ZM121.406 31.5809V30.5809H120.406V31.5809H121.406ZM122.594 44.3934L121.642 44.7L121.644 44.7072L122.594 44.3934ZM129.906 45.2372L129.016 44.7822L129.014 44.7861L129.906 45.2372ZM132.781 35.9247H133.781L131.804 35.7113L132.781 35.9247ZM132.781 49.0497L131.813 49.3013L133.781 49.0497H132.781ZM131.562 44.3622L132.53 44.1105L131.772 41.1927L130.636 43.9855L131.562 44.3622ZM129.156 48.4872L128.44 47.7889L128.44 47.7891L129.156 48.4872ZM120.375 45.0809L119.475 45.516L119.477 45.5209L120.375 45.0809ZM131.438 19.0497L130.553 19.517L130.555 19.5196L131.438 19.0497ZM131.281 30.2997V28.1747H129.281V30.2997H131.281ZM131.281 28.1747C131.281 24.4565 130.903 21.4322 130.099 19.1544L128.213 19.82C128.909 21.7922 129.281 24.5595 129.281 28.1747H131.281ZM130.1 19.1572C129.331 16.9564 128.098 15.2684 126.125 15.2684V17.2684C126.694 17.2684 127.481 17.7263 128.212 19.8171L130.1 19.1572ZM126.125 15.2684C123.99 15.2684 122.65 17.0516 121.833 19.4809L123.729 20.1184C124.495 17.8394 125.385 17.2684 126.125 17.2684V15.2684ZM121.834 19.4784C120.993 21.9571 120.532 25.5787 120.407 30.2729L122.406 30.3265C122.53 25.6874 122.986 22.3089 123.728 20.121L121.834 19.4784ZM121.406 31.2997H130.281V29.2997H121.406V31.2997ZM133.75 30.5809H121.406V32.5809H133.75V30.5809ZM120.406 31.5809C120.406 37.6656 120.797 42.0777 121.642 44.7L123.546 44.0869C122.807 41.7925 122.406 37.6629 122.406 31.5809H120.406ZM121.644 44.7072C122.083 46.0359 122.7 47.1307 123.547 47.8995C124.415 48.6877 125.47 49.0809 126.656 49.0809V47.0809C125.947 47.0809 125.377 46.8596 124.891 46.4186C124.384 45.9582 123.917 45.2093 123.543 44.0796L121.644 44.7072ZM126.656 49.0809C128.467 49.0809 129.804 47.6562 130.799 45.6883L129.014 44.7861C128.092 46.6099 127.262 47.0809 126.656 47.0809V49.0809ZM130.797 45.6921C131.837 43.6551 132.817 40.4456 133.758 36.1381L131.804 35.7113C130.87 39.9871 129.933 42.9859 129.016 44.7822L130.797 45.6921ZM131.781 35.9247V49.0497H133.781V35.9247H131.781ZM133.749 48.798L132.53 44.1105L130.595 44.6138L131.813 49.3013L133.749 48.798ZM130.636 43.9855C129.884 45.8349 129.141 47.0708 128.44 47.7889L129.872 49.1855C130.838 48.1952 131.699 46.6811 132.489 44.7388L130.636 43.9855ZM128.44 47.7891C127.792 48.4542 127.114 48.7372 126.375 48.7372V50.7372C127.719 50.7372 128.896 50.1868 129.872 49.1853L128.44 47.7891ZM126.375 48.7372C124.425 48.7372 122.702 47.5584 121.273 44.641L119.477 45.5209C121.089 48.8118 123.367 50.7372 126.375 50.7372V48.7372ZM121.275 44.6458C119.866 41.7297 119.125 37.7205 119.125 32.5497H117.125C117.125 37.8788 117.884 42.2239 119.475 45.516L121.275 44.6458ZM119.125 32.5497C119.125 27.4752 119.894 23.3598 121.376 20.1573L119.561 19.3171C117.919 22.8645 117.125 27.2909 117.125 32.5497H119.125ZM121.376 20.1573C122.895 16.8758 124.528 15.6747 126.125 15.6747V13.6747C123.305 13.6747 121.167 15.8485 119.561 19.3171L121.376 20.1573ZM126.125 15.6747C127.555 15.6747 129.066 16.7024 130.553 19.517L132.322 18.5824C130.726 15.5636 128.695 13.6747 126.125 13.6747V15.6747ZM130.555 19.5196C132.003 22.2396 132.75 25.5596 132.75 29.5184H134.75C134.75 25.3106 133.955 21.6514 132.32 18.5798L130.555 19.5196ZM132.75 29.5184V31.5809H134.75V29.5184H132.75ZM148.594 30.2997V31.2997H149.594V30.2997H148.594ZM147.469 19.4872L146.525 19.8171L146.526 19.82L147.469 19.4872ZM141.094 19.7997L142.041 20.121L142.042 20.1184L141.094 19.7997ZM139.719 30.2997L138.719 30.2729L138.692 31.2997H139.719V30.2997ZM152.062 31.5809V32.5809H153.062V31.5809H152.062ZM139.719 31.5809V30.5809H138.719V31.5809H139.719ZM140.906 44.3934L139.954 44.7L139.957 44.7072L140.906 44.3934ZM148.219 45.2372L147.328 44.7822L147.326 44.7861L148.219 45.2372ZM151.094 35.9247H152.094L150.117 35.7113L151.094 35.9247ZM151.094 49.0497L150.126 49.3013L152.094 49.0497H151.094ZM149.875 44.3622L150.843 44.1105L150.084 41.1927L148.949 43.9855L149.875 44.3622ZM147.469 48.4872L146.753 47.7889L146.753 47.7891L147.469 48.4872ZM138.688 45.0809L137.787 45.516L137.789 45.5209L138.688 45.0809ZM149.75 19.0497L148.866 19.517L148.867 19.5196L149.75 19.0497ZM149.594 30.2997V28.1747H147.594V30.2997H149.594ZM149.594 28.1747C149.594 24.4565 149.216 21.4322 148.412 19.1544L146.526 19.82C147.222 21.7922 147.594 24.5595 147.594 28.1747H149.594ZM148.413 19.1572C147.644 16.9564 146.41 15.2684 144.438 15.2684V17.2684C145.006 17.2684 145.794 17.7263 146.525 19.8171L148.413 19.1572ZM144.438 15.2684C142.302 15.2684 140.963 17.0516 140.146 19.4809L142.042 20.1184C142.808 17.8394 143.698 17.2684 144.438 17.2684V15.2684ZM140.147 19.4784C139.306 21.9571 138.845 25.5787 138.719 30.2729L140.718 30.3265C140.843 25.6874 141.298 22.3089 142.041 20.121L140.147 19.4784ZM139.719 31.2997H148.594V29.2997H139.719V31.2997ZM152.062 30.5809H139.719V32.5809H152.062V30.5809ZM138.719 31.5809C138.719 37.6656 139.11 42.0777 139.954 44.7L141.858 44.0869C141.119 41.7925 140.719 37.6629 140.719 31.5809H138.719ZM139.957 44.7072C140.396 46.0359 141.012 47.1307 141.859 47.8995C142.728 48.6877 143.782 49.0809 144.969 49.0809V47.0809C144.259 47.0809 143.689 46.8596 143.203 46.4186C142.696 45.9582 142.229 45.2093 141.856 44.0796L139.957 44.7072ZM144.969 49.0809C146.78 49.0809 148.116 47.6562 149.111 45.6883L147.326 44.7861C146.404 46.6099 145.575 47.0809 144.969 47.0809V49.0809ZM149.109 45.6921C150.15 43.6551 151.13 40.4456 152.071 36.1381L150.117 35.7113C149.183 39.9871 148.246 42.9859 147.328 44.7822L149.109 45.6921ZM150.094 35.9247V49.0497H152.094V35.9247H150.094ZM152.062 48.798L150.843 44.1105L148.907 44.6138L150.126 49.3013L152.062 48.798ZM148.949 43.9855C148.197 45.8349 147.454 47.0708 146.753 47.7889L148.185 49.1855C149.151 48.1952 150.012 46.6811 150.801 44.7388L148.949 43.9855ZM146.753 47.7891C146.104 48.4542 145.427 48.7372 144.688 48.7372V50.7372C146.032 50.7372 147.208 50.1868 148.185 49.1853L146.753 47.7891ZM144.688 48.7372C142.737 48.7372 141.015 47.5584 139.586 44.641L137.789 45.5209C139.402 48.8118 141.679 50.7372 144.688 50.7372V48.7372ZM139.588 44.6458C138.179 41.7297 137.438 37.7205 137.438 32.5497H135.438C135.438 37.8788 136.196 42.2239 137.787 45.516L139.588 44.6458ZM137.438 32.5497C137.438 27.4752 138.206 23.3598 139.689 20.1573L137.874 19.3171C136.231 22.8645 135.438 27.2909 135.438 32.5497H137.438ZM139.689 20.1573C141.208 16.8758 142.841 15.6747 144.438 15.6747V13.6747C141.617 13.6747 139.48 15.8485 137.874 19.3171L139.689 20.1573ZM144.438 15.6747C145.867 15.6747 147.378 16.7024 148.866 19.517L150.634 18.5824C149.038 15.5636 147.008 13.6747 144.438 13.6747V15.6747ZM148.867 19.5196C150.315 22.2396 151.062 25.5596 151.062 29.5184H153.062C153.062 25.3106 152.268 21.6514 150.633 18.5798L148.867 19.5196ZM151.062 29.5184V31.5809H153.062V29.5184H151.062ZM153.938 49.1747L153.392 48.3364L150.566 50.1747H153.938V49.1747ZM157.781 46.6747L158.326 47.513L158.781 47.2172V46.6747H157.781ZM157.781 4.36218H158.781V3.80135L158.303 3.5089L157.781 4.36218ZM153.281 1.61218V0.612183H149.727L152.76 2.46546L153.281 1.61218ZM161.219 1.61218L162.218 1.65445L162.262 0.612183H161.219V1.61218ZM159.312 46.6747L158.313 46.6324L158.289 47.207L158.773 47.517L159.312 46.6747ZM163.219 49.1747V50.1747H166.636L163.758 48.3324L163.219 49.1747ZM154.483 50.013L158.326 47.513L157.236 45.8364L153.392 48.3364L154.483 50.013ZM158.781 46.6747V4.36218H156.781V46.6747H158.781ZM158.303 3.5089L153.803 0.758901L152.76 2.46546L157.26 5.21546L158.303 3.5089ZM153.281 2.61218H161.219V0.612183H153.281V2.61218ZM160.22 1.56992L158.313 46.6324L160.312 46.7169L162.218 1.65445L160.22 1.56992ZM158.773 47.517L162.68 50.017L163.758 48.3324L159.852 45.8324L158.773 47.517ZM163.219 48.1747H153.938V50.1747H163.219V48.1747Z" fill="#87A8FF" mask="url(#path-1-outside-1_25_285)"/>
<defs>
<filter id="filter0_i_25_285" x="0.75" y="0.799683" width="162.469" height="52.9375" filterUnits="userSpaceOnUse" color-interpolation-filters="sRGB">
<feFlood flood-opacity="0" result="BackgroundImageFix"/>
<feBlend mode="normal" in="SourceGraphic" in2="BackgroundImageFix" result="shape"/>
<feColorMatrix in="SourceAlpha" type="matrix" values="0 0 0 0 0 0 0 0 0 0 0 0 0 0 0 0 0 0 127 0" result="hardAlpha"/>
<feOffset dy="4"/>
<feGaussianBlur stdDeviation="2"/>
<feComposite in2="hardAlpha" operator="arithmetic" k2="-1" k3="1"/>
<feColorMatrix type="matrix" values="0 0 0 0 0 0 0 0 0 0 0 0 0 0 0 0 0 0 0.25 0"/>
<feBlend mode="normal" in2="shape" result="effect1_innerShadow_25_285"/>
</filter>
</defs>
</svg>
